<svg width="22" height="23" viewBox="0 0 22 23" fill="none" xmlns="http://www.w3.org/2000/svg">
<path d="M14.3101 3.86521C14.7209 4.25934 15.1193 4.64153 15.5862 5.08941C15.5115 5.13718 15.3933 5.18495 15.3061 5.26856C12.318 8.12899 9.32987 10.9954 6.34798 13.8618C5.47645 14.6978 5.69433 15.9758 6.77752 16.358C7.35025 16.561 7.87939 16.4834 8.34629 16.0892C8.41476 16.0295 8.48324 15.9698 8.55172 15.9041C11.7141 12.8705 14.8766 9.83689 18.039 6.80328C19.4148 5.48354 19.2654 3.34568 17.7339 2.27077C16.5512 1.44071 14.7832 1.49446 13.7436 2.48575C10.1454 5.9135 6.55964 9.34124 3.01748 12.8108C1.73508 14.0648 1.43627 15.6414 2.02144 17.2955C2.60661 18.9616 3.87034 19.9649 5.67566 20.2575C7.25064 20.5143 8.63265 20.0544 9.76564 18.9736C11.1041 17.6956 12.4363 16.4117 13.7747 15.1338C16.022 12.978 18.2631 10.8282 20.5104 8.67242C20.5913 8.59478 20.6723 8.52312 20.7283 8.46938C21.1454 8.86351 21.5438 9.25167 21.9982 9.6876C21.9298 9.73537 21.8177 9.78315 21.743 9.86078C18.1386 13.3124 14.5529 16.7879 10.9235 20.2157C9.10576 21.9295 6.88335 22.4312 4.46173 21.6847C2.04012 20.9442 0.558508 19.2901 0.110291 16.8775C-0.275674 14.8053 0.359301 12.978 1.89071 11.491C5.38307 8.09913 8.90656 4.73708 12.43 1.37502C15.0944 -1.16294 19.5891 -0.0223514 20.5478 3.44122C21.0271 5.16107 20.5851 6.70773 19.2778 7.97373C16.1527 11.0014 12.9965 13.9992 9.86524 17.0208C9.2863 17.5822 8.65132 17.9644 7.84204 18.0957C6.50984 18.3107 5.17141 17.6956 4.49286 16.567C3.81431 15.4383 3.94504 13.9812 4.81657 12.9899C4.92863 12.8586 5.05313 12.7391 5.17764 12.6197C8.16575 9.75329 11.1476 6.88688 14.1358 4.02645C14.198 3.96076 14.2665 3.90701 14.3101 3.86521Z" fill="#001E42"/>
</svg>
