<svg width="22" height="23" viewBox="0 0 22 23" fill="none" xmlns="http://www.w3.org/2000/svg"><path d="M14.31 4.037l1.276 1.278c-.075.05-.193.1-.28.187-2.988 2.987-5.976 5.98-8.958 8.974-.872.873-.654 2.208.43 2.607.572.212 1.101.131 1.568-.28.069-.063.137-.125.206-.194l9.487-9.504c1.376-1.378 1.226-3.611-.305-4.734-1.183-.866-2.95-.81-3.99.225A1093.17 1093.17 0 003.017 13.379c-1.282 1.31-1.58 2.956-.996 4.683.586 1.74 1.85 2.788 3.655 3.094 1.575.268 2.957-.212 4.09-1.341 1.338-1.335 2.67-2.676 4.009-4.01l6.735-6.748c.081-.081.162-.156.218-.212.417.411.816.817 1.27 1.272-.068.05-.18.1-.255.181-3.604 3.605-7.19 7.234-10.82 10.814-1.817 1.79-4.04 2.314-6.461 1.534-2.422-.773-3.903-2.5-4.352-5.02-.386-2.164.25-4.073 1.78-5.626C5.384 8.459 8.908 4.948 12.43 1.437c2.664-2.65 7.16-1.46 8.118 2.158.48 1.796.037 3.411-1.27 4.733-3.125 3.162-6.281 6.293-9.413 9.449-.579.586-1.214.985-2.023 1.122a3.255 3.255 0 01-3.35-1.596 3.303 3.303 0 01.325-3.736c.112-.137.236-.262.36-.387 2.989-2.993 5.97-5.987 8.959-8.974.062-.069.13-.125.174-.168z" fill="#00FEFF"/></svg>