<svg width="75" height="62" viewBox="0 0 75 62" fill="none" xmlns="http://www.w3.org/2000/svg"><path fill="#00FEFF" d="M12 9h63v53H12z"/><g clip-path="url(#clip0)" fill="#001E42"><path d="M31.796 4.343c0-.425-.155-.9-.38-1.264-.475-.77-1.09-1.453-1.56-2.229C29.49.245 29.04.003 28.35.017c-1.096.02-13.085.027-13.868-.011-.993-.05-1.673.227-2.117 1.161-.275.578-.739 1.064-1.058 1.623-.274.48-.66 1.009-.663 1.517-.036 12.51-.033 25.022-.025 37.532 0 1.212.436 1.628 1.668 1.628 5.942.009 11.88.006 17.823-.002 1.293-.003 1.704-.4 1.704-1.693.005-12.473.005-24.952-.017-37.429zM13.54 7.313c.009-1.186.339-1.544 1.488-1.547 4.121-.014 8.24-.017 12.36-.003 1.147.003 1.508.375 1.516 1.534.017 2.045.014 4.093 0 6.138-.008 1.209-.36 1.542-1.587 1.545-2.043.008-4.088.003-6.13.003v-.006c-2.043 0-4.089.009-6.131-.002-1.144-.006-1.504-.362-1.513-1.52a453.805 453.805 0 01-.003-6.141zm7.577 34.32a2.801 2.801 0 01-2.728-2.95c.07-1.526 1.365-2.693 2.93-2.638 1.563.053 2.762 1.304 2.731 2.843-.03 1.57-1.335 2.793-2.933 2.745zm6.572-7.786c-2.17.012-4.34.003-6.508.003-2.137 0-4.274.009-6.411-.003-1.102-.005-1.227-.155-1.232-1.347-.006-1.265.083-1.392 1.168-1.392 4.34-.009 8.678-.009 13.019 0 1.085.002 1.188.144 1.188 1.38-.006 1.204-.125 1.354-1.224 1.36zm0-6.06c-2.17.011-4.34.003-6.511.003-2.17 0-4.34-.033-6.508.014-1.116.025-1.127-.628-1.152-1.45-.025-.879.206-1.318 1.185-1.312 4.34.03 8.678.002 13.019.014 1.074.002 1.188.158 1.188 1.38-.003 1.204-.114 1.346-1.221 1.351zm.141-6.044c-2.203-.041-4.407-.013-6.608-.013-2.203 0-4.407-.031-6.608.013-.988.02-1.101-.505-1.087-1.289.013-.767-.009-1.412 1.08-1.403 4.406.033 8.81.03 13.218 0 1.063-.008 1.099.603 1.099 1.39-.003.777-.103 1.322-1.094 1.302z"/><path d="M64.95 43.237l-8.835-3.715-5.905-8.1h5.237c.752 0 1.423-.55 1.495-1.3a1.44 1.44 0 00-1.434-1.585H37.954a.511.511 0 01-.51-.511v-1.965c0-.753-.55-1.425-1.3-1.497A1.44 1.44 0 0034.564 26v19.08a.88.88 0 01-.88.88H17.581a6.465 6.465 0 00-3.477-1.008c-1.28 0-2.47.373-3.478 1.009H7.868a.756.756 0 01-.755-.756V25.267a.71.71 0 00-.71-.712h-.347A6.062 6.062 0 000 30.621v20.685c0 .459.37.828.827.828h6.258v.028h.536C7.965 55.438 10.74 58 14.104 58c3.363 0 6.139-2.562 6.483-5.838h23.476C44.407 55.438 47.182 58 50.546 58c3.363 0 6.138-2.562 6.483-5.838h8.761A1.21 1.21 0 0067 50.95v-5.493c0-1.62-2.05-2.22-2.05-2.22zm-48.507 11.51c-.005.002-.008.007-.014.01a3.587 3.587 0 01-.241.159c-.025.014-.047.03-.072.044-.072.042-.147.08-.222.12-.036.019-.075.036-.111.055a6.63 6.63 0 01-.208.089c-.047.02-.097.036-.147.053-.064.022-.13.044-.195.064-.058.016-.119.03-.18.047-.058.014-.12.03-.18.042-.075.014-.15.025-.225.033-.05.006-.1.017-.15.02a5.24 5.24 0 01-.364.019h-.044c-.122 0-.244-.006-.366-.02-.05-.005-.1-.013-.15-.019-.075-.011-.153-.02-.228-.033-.06-.011-.12-.028-.178-.042a4.398 4.398 0 01-.183-.047 3.843 3.843 0 01-.341-.12 4.192 4.192 0 01-.208-.089c-.039-.016-.075-.036-.114-.055a3.435 3.435 0 01-.222-.12l-.075-.044c-.08-.05-.16-.1-.239-.156-.005-.003-.01-.008-.016-.01a4.018 4.018 0 01-1.68-3.397c.065-2.075 1.752-3.798 3.825-3.898a4.025 4.025 0 014.219 4.02 4.056 4.056 0 01-1.69 3.274zm23.462-14.853a.65.65 0 01-.65-.65V33.3a.65.65 0 01.65-.65h7.35a.65.65 0 01.53.275l4.187 5.944a.65.65 0 01-.53 1.025H39.905zm12.977 14.852c-.005.003-.008.006-.014.008a4.47 4.47 0 01-.241.159c-.025.014-.047.03-.072.044-.072.042-.147.08-.222.12-.036.02-.075.036-.111.053-.07.03-.139.06-.208.088a4.17 4.17 0 01-.344.117c-.059.017-.12.03-.18.047-.062.014-.12.031-.181.042-.075.014-.15.025-.225.033-.05.006-.1.017-.15.02-.12.011-.241.017-.363.02h-.048c-.122 0-.244-.006-.366-.02l-.15-.02c-.075-.01-.152-.019-.227-.033-.062-.011-.12-.028-.178-.042a4.4 4.4 0 01-.183-.047 4.05 4.05 0 01-.194-.064c-.05-.016-.1-.036-.15-.055a5.479 5.479 0 01-.209-.09 1.426 1.426 0 01-.113-.055 3.288 3.288 0 01-.22-.116c-.025-.014-.05-.031-.074-.045-.08-.05-.161-.1-.24-.156-.005-.005-.01-.008-.019-.014a4.025 4.025 0 01-1.678-3.395c.063-2.076 1.75-3.798 3.824-3.899a4.025 4.025 0 014.218 4.021 4.014 4.014 0 01-1.682 3.28zm11.823-6.402c-.724 0-1.313-.79-1.313-1.764 0-.973.588-1.765 1.313-1.765.724 0 1.313.79 1.313 1.765 0 .972-.589 1.764-1.313 1.764z"/></g><defs><clipPath id="clip0"><path fill="#fff" d="M0 0h67v58H0z"/></clipPath></defs></svg>